<?xml version="1.0" encoding="utf-8"?>
<!-- Generator: Adobe Illustrator 15.1.0, SVG Export Plug-In . SVG Version: 6.00 Build 0)  -->
<!DOCTYPE svg PUBLIC "-//W3C//DTD SVG 1.1//EN" "http://www.w3.org/Graphics/SVG/1.1/DTD/svg11.dtd">
<svg version="1.1" id="Layer_1" xmlns="http://www.w3.org/2000/svg" xmlns:xlink="http://www.w3.org/1999/xlink" x="0px" y="0px"
	 width="350px" height="66.557px" viewBox="0 0 350 66.557" enable-background="new 0 0 350 66.557" xml:space="preserve">
<g>
	<g>
		<radialGradient id="SVGID_1_" cx="35.2705" cy="33.2788" r="59.3263" gradientUnits="userSpaceOnUse">
			<stop  offset="0" style="stop-color:#005BAA"/>
			<stop  offset="1" style="stop-color:#002F67"/>
		</radialGradient>
		<polygon fill-rule="evenodd" clip-rule="evenodd" fill="url(#SVGID_1_)" points="32.575,0 32.575,0 21.736,10.227 10.897,0 
			10.897,0 0,0 0,66.557 70.541,66.557 70.541,0 		"/>
		<g>
			<polygon fill="#F2F2F2" points="27.348,33.436 31.646,33.436 31.646,55.577 43.039,55.577 43.039,25.352 31.646,25.352 			"/>
			<polygon fill="#F2F2F2" points="48.17,25.352 43.868,33.436 48.17,33.436 48.17,55.577 59.558,55.577 59.558,25.352 			"/>
		</g>
	</g>
	<g>
		<path fill="#FFFFFF" d="M93.287,10.521V36h-6.359V22.34c0-1.973-0.047-3.158-0.141-3.557c-0.094-0.399-0.354-0.701-0.78-0.905
			c-0.424-0.205-1.372-0.308-2.839-0.308h-0.63v-2.97c3.074-0.661,5.409-2.021,7.004-4.08H93.287z"/>
		<path fill="#FFFFFF" d="M105.562,10.521V36h-6.358V22.34c0-1.973-0.048-3.158-0.142-3.557c-0.095-0.399-0.354-0.701-0.779-0.905
			c-0.424-0.205-1.372-0.308-2.84-0.308h-0.63v-2.97c3.075-0.661,5.408-2.021,7.004-4.08H105.562z"/>
		<path fill="#FFFFFF" d="M115.823,23.363v4.391h-8.357v-4.391H115.823z"/>
		<path fill="#FFFFFF" d="M124.336,10.521V36h-6.626V10.521H124.336z"/>
		<path fill="#FFFFFF" d="M141.79,10.521V36h-5.807l-3.448-11.583V36h-5.54V10.521h5.54l3.715,11.473V10.521H141.79z"/>
		<path fill="#FFFFFF" d="M144.449,10.521h11.221v5.099h-4.596v4.832h4.093v4.847h-4.093V36h-6.625V10.521z"/>
		<path fill="#FFFFFF" d="M172.417,25.44c0,2.56-0.063,4.373-0.183,5.437c-0.121,1.064-0.498,2.038-1.132,2.919
			c-0.637,0.881-1.493,1.559-2.575,2.03c-1.08,0.472-2.34,0.709-3.777,0.709c-1.364,0-2.588-0.224-3.675-0.669
			c-1.086-0.445-1.959-1.115-2.62-2.006s-1.053-1.862-1.181-2.912c-0.125-1.049-0.188-2.885-0.188-5.508v-4.36
			c0-2.56,0.062-4.372,0.182-5.438c0.121-1.064,0.498-2.038,1.133-2.919c0.634-0.881,1.492-1.559,2.572-2.03
			c1.082-0.473,2.339-0.708,3.777-0.708c1.365,0,2.59,0.223,3.676,0.668c1.086,0.447,1.96,1.115,2.621,2.007
			c0.66,0.891,1.054,1.862,1.179,2.911c0.127,1.049,0.191,2.885,0.191,5.508V25.44z M165.79,17.067c0-1.186-0.066-1.943-0.198-2.274
			c-0.131-0.33-0.401-0.496-0.81-0.496c-0.347,0-0.613,0.134-0.794,0.401c-0.185,0.268-0.277,1.057-0.277,2.368v11.898
			c0,1.479,0.062,2.392,0.182,2.739c0.121,0.346,0.399,0.519,0.841,0.519c0.452,0,0.739-0.199,0.867-0.598
			c0.125-0.398,0.188-1.348,0.188-2.849V17.067z"/>
		<path fill="#FFFFFF" d="M188.23,10.521v5.099h-3.935V36h-6.623V15.62h-3.921v-5.099H188.23z"/>
		<path fill="#FFFFFF" d="M189.741,10.521h11.048v5.099h-4.422v4.832h4.139v4.847h-4.139v5.602h4.863V36h-11.489V10.521z"/>
		<path fill="#FFFFFF" d="M218.604,21.616h-6.627v-4.429c0-1.288-0.07-2.091-0.213-2.41c-0.14-0.319-0.451-0.479-0.935-0.479
			c-0.547,0-0.893,0.194-1.038,0.583c-0.147,0.388-0.222,1.227-0.222,2.517v11.835c0,1.238,0.074,2.046,0.222,2.424
			c0.146,0.377,0.476,0.566,0.99,0.566c0.493,0,0.816-0.189,0.968-0.567c0.153-0.379,0.228-1.267,0.228-2.667v-3.203h6.627v0.993
			c0,2.638-0.188,4.508-0.558,5.611c-0.374,1.104-1.196,2.071-2.473,2.9c-1.274,0.831-2.847,1.246-4.714,1.246
			c-1.939,0-3.54-0.353-4.8-1.055c-1.26-0.704-2.094-1.677-2.501-2.92c-0.408-1.244-0.615-3.113-0.615-5.61v-7.445
			c0-1.836,0.063-3.213,0.189-4.13c0.126-0.918,0.502-1.802,1.125-2.652c0.624-0.849,1.49-1.519,2.597-2.006
			c1.108-0.489,2.379-0.732,3.817-0.732c1.95,0,3.561,0.376,4.832,1.132c1.269,0.754,2.102,1.695,2.502,2.821
			c0.397,1.125,0.598,2.878,0.598,5.256V21.616z"/>
		<path fill="#FFFFFF" d="M236.217,10.521V36h-6.626V25.299h-1.984V36h-6.626V10.521h6.626v9.112h1.984v-9.112H236.217z"/>
	</g>
	<g>
		<path fill="#FFFFFF" d="M257.37,18.233h-6.155v-1.889c0-0.881-0.079-1.443-0.236-1.684c-0.156-0.242-0.42-0.362-0.785-0.362
			c-0.4,0-0.701,0.164-0.907,0.488c-0.203,0.326-0.305,0.818-0.305,1.481c0,0.851,0.114,1.491,0.345,1.921
			c0.219,0.43,0.842,0.951,1.871,1.559c2.949,1.75,4.807,3.187,5.572,4.309c0.768,1.123,1.15,2.932,1.15,5.43
			c0,1.815-0.213,3.153-0.639,4.013c-0.423,0.86-1.246,1.582-2.462,2.164c-1.218,0.582-2.635,0.874-4.249,0.874
			c-1.773,0-3.288-0.336-4.541-1.008c-1.254-0.671-2.075-1.526-2.463-2.565c-0.388-1.039-0.581-2.514-0.581-4.423v-1.668h6.151
			v3.101c0,0.954,0.088,1.569,0.261,1.841c0.175,0.272,0.479,0.409,0.92,0.409c0.441,0,0.769-0.173,0.983-0.519
			c0.215-0.347,0.322-0.861,0.322-1.543c0-1.5-0.203-2.481-0.611-2.942c-0.421-0.462-1.455-1.234-3.102-2.314
			c-1.647-1.091-2.739-1.883-3.272-2.376c-0.535-0.494-0.979-1.175-1.329-2.046c-0.354-0.87-0.53-1.983-0.53-3.336
			c0-1.951,0.251-3.378,0.749-4.28c0.497-0.902,1.304-1.608,2.416-2.117c1.11-0.508,2.454-0.763,4.027-0.763
			c1.721,0,3.188,0.277,4.4,0.834c1.212,0.556,2.014,1.257,2.408,2.101c0.394,0.845,0.591,2.281,0.591,4.305V18.233z"/>
		<path fill="#FFFFFF" d="M274.113,10.521l-4.831,16.257V36h-6.139v-9.222l-4.656-16.257h6.085c0.952,4.974,1.488,8.32,1.609,10.041
			c0.368-2.718,0.982-6.064,1.845-10.041H274.113z"/>
		<path fill="#FFFFFF" d="M289.285,18.233h-6.153v-1.889c0-0.881-0.08-1.443-0.238-1.684c-0.155-0.242-0.418-0.362-0.786-0.362
			c-0.399,0-0.699,0.164-0.905,0.488c-0.204,0.326-0.305,0.818-0.305,1.481c0,0.851,0.113,1.491,0.344,1.921
			c0.22,0.43,0.843,0.951,1.872,1.559c2.95,1.75,4.807,3.187,5.573,4.309c0.766,1.123,1.148,2.932,1.148,5.43
			c0,1.815-0.212,3.153-0.638,4.013c-0.424,0.86-1.247,1.582-2.462,2.164c-1.218,0.582-2.635,0.874-4.249,0.874
			c-1.773,0-3.287-0.336-4.542-1.008c-1.252-0.671-2.073-1.526-2.463-2.565c-0.388-1.039-0.58-2.514-0.58-4.423v-1.668h6.15v3.101
			c0,0.954,0.089,1.569,0.262,1.841c0.174,0.272,0.479,0.409,0.919,0.409c0.442,0,0.769-0.173,0.983-0.519
			c0.216-0.347,0.323-0.861,0.323-1.543c0-1.5-0.204-2.481-0.611-2.942c-0.422-0.462-1.456-1.234-3.102-2.314
			c-1.648-1.091-2.74-1.883-3.272-2.376c-0.535-0.494-0.979-1.175-1.331-2.046c-0.352-0.87-0.528-1.983-0.528-3.336
			c0-1.951,0.25-3.378,0.749-4.28c0.497-0.902,1.303-1.608,2.416-2.117c1.11-0.508,2.454-0.763,4.027-0.763
			c1.72,0,3.187,0.277,4.4,0.834c1.212,0.556,2.012,1.257,2.408,2.101c0.392,0.845,0.59,2.281,0.59,4.305V18.233z"/>
		<path fill="#FFFFFF" d="M305.259,10.521v5.099h-3.936V36H294.7V15.62h-3.92v-5.099H305.259z"/>
		<path fill="#FFFFFF" d="M306.769,10.521h11.048v5.099h-4.422v4.832h4.139v4.847h-4.139v5.602h4.864V36h-11.49V10.521z"/>
		<path fill="#FFFFFF" d="M340.604,10.521V36h-5.791l-0.006-17.201L332.5,36h-4.107l-2.431-16.809L325.952,36h-5.791V10.521h8.573
			c0.254,1.532,0.517,3.338,0.786,5.417l0.942,6.48l1.521-11.897H340.604z"/>
	</g>
	<g>
		<path fill="#FFFFFF" d="M150.37,60.465V45.264h2.013v15.201H150.37z"/>
		<path fill="#FFFFFF" d="M156.135,60.465v-9.56h-1.648v-1.451h1.648v-1.17c0-0.742,0.066-1.291,0.197-1.65
			c0.178-0.483,0.497-0.875,0.948-1.177c0.452-0.3,1.086-0.452,1.903-0.452c0.525,0,1.106,0.063,1.741,0.188l-0.279,1.629
			c-0.389-0.071-0.755-0.105-1.1-0.105c-0.566,0-0.968,0.12-1.203,0.364c-0.235,0.242-0.354,0.694-0.354,1.357v1.016h2.146v1.451
			h-2.146v9.56H156.135z"/>
		<path fill="#FFFFFF" d="M167.497,47.41v-2.146h1.868v2.146H167.497z M167.497,60.465V49.454h1.868v11.011H167.497z"/>
		<path fill="#FFFFFF" d="M176.278,58.796l0.27,1.646c-0.524,0.112-0.993,0.167-1.409,0.167c-0.678,0-1.202-0.105-1.577-0.321
			c-0.372-0.215-0.636-0.496-0.786-0.847c-0.154-0.346-0.229-1.082-0.229-2.202v-6.335h-1.369v-1.451h1.369v-2.726l1.855-1.122
			v3.848h1.876v1.451h-1.876v6.439c0,0.531,0.032,0.873,0.099,1.026c0.065,0.152,0.173,0.272,0.323,0.362
			c0.147,0.09,0.359,0.134,0.636,0.134C175.668,58.867,175.94,58.845,176.278,58.796z"/>
		<path fill="#FFFFFF" d="M177.99,47.276V45.11h1.999v1.712c0,0.926-0.104,1.591-0.319,2c-0.296,0.559-0.761,0.981-1.39,1.266
			l-0.457-0.737c0.374-0.154,0.652-0.393,0.835-0.72c0.183-0.329,0.284-0.782,0.307-1.354H177.99z"/>
		<path fill="#FFFFFF" d="M181.69,57.177l1.845-0.29c0.105,0.742,0.393,1.309,0.866,1.702c0.474,0.393,1.135,0.59,1.986,0.59
			c0.856,0,1.492-0.176,1.907-0.523c0.414-0.352,0.621-0.76,0.621-1.229c0-0.421-0.183-0.754-0.549-0.997
			c-0.257-0.165-0.892-0.375-1.907-0.632c-1.369-0.344-2.317-0.645-2.847-0.895c-0.529-0.254-0.93-0.601-1.203-1.049
			c-0.274-0.443-0.409-0.937-0.409-1.475c0-0.492,0.111-0.949,0.337-1.366c0.224-0.417,0.531-0.764,0.918-1.04
			c0.289-0.215,0.685-0.397,1.187-0.544c0.501-0.149,1.038-0.224,1.611-0.224c0.864,0,1.624,0.123,2.276,0.373
			c0.653,0.249,1.137,0.586,1.446,1.01c0.312,0.426,0.526,0.994,0.644,1.708l-1.824,0.248c-0.084-0.568-0.323-1.009-0.723-1.328
			c-0.397-0.316-0.958-0.476-1.683-0.476c-0.859,0-1.469,0.142-1.835,0.423c-0.367,0.285-0.552,0.617-0.552,0.996
			c0,0.242,0.077,0.461,0.229,0.654c0.15,0.2,0.391,0.365,0.715,0.497c0.187,0.07,0.737,0.228,1.648,0.479
			c1.321,0.351,2.24,0.641,2.763,0.864c0.522,0.224,0.934,0.553,1.229,0.979c0.297,0.43,0.444,0.961,0.444,1.598
			c0,0.624-0.181,1.207-0.543,1.758c-0.362,0.549-0.887,0.975-1.571,1.275c-0.684,0.301-1.458,0.452-2.322,0.452
			c-1.431,0-2.52-0.298-3.271-0.893C182.376,59.227,181.897,58.347,181.69,57.177z"/>
		<path fill="#FFFFFF" d="M199.532,60.465V45.264h2.012v15.201H199.532z"/>
		<path fill="#FFFFFF" d="M205.381,60.465V58.34h2.124v2.125H205.381z"/>
		<path fill="#FFFFFF" d="M214.854,60.465V47.06h-5.005v-1.796h12.047v1.796h-5.028v13.405H214.854z"/>
		<path fill="#FFFFFF" d="M221.898,60.465V58.34h2.124v2.125H221.898z"/>
		<path fill="#FFFFFF" d="M227.756,60.465V58.34h2.124v2.125c0,0.781-0.138,1.411-0.414,1.892c-0.276,0.48-0.717,0.852-1.317,1.115
			l-0.518-0.799c0.396-0.171,0.685-0.426,0.872-0.762c0.186-0.335,0.289-0.818,0.312-1.446H227.756z"/>
		<path fill="#FFFFFF" d="M241.96,60.465l-4.034-15.201h2.063l2.313,9.965c0.247,1.044,0.463,2.081,0.64,3.112
			c0.389-1.625,0.618-2.561,0.686-2.809l2.894-10.268h2.428l2.176,7.695c0.545,1.907,0.94,3.7,1.182,5.381
			c0.192-0.961,0.445-2.063,0.757-3.31l2.386-9.767h2.021l-4.169,15.201h-1.94l-3.2-11.58c-0.271-0.97-0.432-1.563-0.479-1.784
			c-0.157,0.698-0.307,1.292-0.446,1.784l-3.223,11.58H241.96z"/>
		<path fill="#FFFFFF" d="M266.26,56.918l1.93,0.239c-0.306,1.126-0.87,2.001-1.689,2.623c-0.823,0.623-1.875,0.935-3.152,0.935
			c-1.611,0-2.889-0.496-3.832-1.488c-0.944-0.992-1.415-2.383-1.415-4.174c0-1.853,0.478-3.29,1.432-4.313
			c0.954-1.023,2.191-1.534,3.71-1.534c1.473,0,2.675,0.5,3.608,1.503c0.933,1.003,1.4,2.412,1.4,4.229
			c0,0.11-0.005,0.276-0.012,0.498h-8.21c0.068,1.209,0.41,2.136,1.027,2.779c0.614,0.643,1.38,0.964,2.299,0.964
			c0.687,0,1.27-0.18,1.755-0.541C265.594,58.281,265.977,57.708,266.26,56.918z M260.133,53.903h6.146
			c-0.08-0.926-0.315-1.62-0.704-2.085c-0.595-0.719-1.365-1.077-2.312-1.077c-0.858,0-1.578,0.287-2.16,0.86
			C260.52,52.173,260.196,52.941,260.133,53.903z"/>
		<path fill="#FFFFFF" d="M283.576,60.465v-1.39c-0.699,1.091-1.724,1.64-3.079,1.64c-0.877,0-1.686-0.243-2.423-0.729
			c-0.735-0.483-1.305-1.159-1.71-2.026c-0.403-0.867-0.605-1.863-0.605-2.991c0-1.098,0.182-2.094,0.55-2.99
			c0.366-0.895,0.914-1.582,1.647-2.058c0.733-0.479,1.552-0.716,2.458-0.716c0.663,0,1.253,0.141,1.773,0.419
			c0.519,0.279,0.939,0.645,1.264,1.094v-5.456h1.855v15.201H283.576z M277.677,54.969c0,1.411,0.296,2.465,0.891,3.163
			c0.597,0.698,1.296,1.047,2.106,1.047c0.813,0,1.507-0.334,2.078-1.001c0.57-0.667,0.854-1.686,0.854-3.054
			c0-1.508-0.292-2.614-0.87-3.316c-0.582-0.707-1.297-1.058-2.146-1.058c-0.83,0-1.522,0.338-2.079,1.015
			C277.954,52.445,277.677,53.512,277.677,54.969z"/>
		<path fill="#FFFFFF" d="M287.546,54.96c0-2.041,0.567-3.551,1.701-4.532c0.946-0.815,2.101-1.223,3.464-1.223
			c1.513,0,2.75,0.496,3.711,1.488c0.963,0.992,1.441,2.361,1.441,4.109c0,1.417-0.212,2.532-0.638,3.345
			c-0.426,0.812-1.045,1.444-1.856,1.892c-0.813,0.45-1.699,0.676-2.658,0.676c-1.543,0-2.787-0.496-3.737-1.483
			C288.023,58.244,287.546,56.82,287.546,54.96z M289.465,54.96c0,1.409,0.307,2.465,0.925,3.167c0.614,0.7,1.39,1.052,2.321,1.052
			c0.926,0,1.696-0.352,2.312-1.058c0.613-0.705,0.924-1.778,0.924-3.225c0-1.361-0.311-2.392-0.929-3.094
			c-0.618-0.7-1.387-1.052-2.307-1.052c-0.932,0-1.707,0.348-2.321,1.047C289.771,52.496,289.465,53.549,289.465,54.96z"/>
		<path fill="#FFFFFF" d="M305.96,47.41v-2.146h1.868v2.146H305.96z M305.96,60.465V49.454h1.868v11.011H305.96z"/>
		<path fill="#FFFFFF" d="M314.741,58.796l0.271,1.646c-0.525,0.112-0.995,0.167-1.409,0.167c-0.679,0-1.204-0.105-1.577-0.321
			c-0.372-0.215-0.636-0.496-0.788-0.847c-0.153-0.346-0.229-1.082-0.229-2.202v-6.335h-1.368v-1.451h1.368v-2.726l1.855-1.122
			v3.848h1.876v1.451h-1.876v6.439c0,0.531,0.033,0.873,0.099,1.026c0.066,0.152,0.173,0.272,0.322,0.362
			c0.147,0.09,0.36,0.134,0.637,0.134C314.133,58.867,314.404,58.845,314.741,58.796z"/>
		<path fill="#FFFFFF" d="M329.649,59.106c-0.69,0.588-1.355,1.003-1.994,1.245s-1.325,0.364-2.058,0.364
			c-1.209,0-2.139-0.298-2.787-0.887c-0.65-0.592-0.976-1.347-0.976-2.265c0-0.54,0.12-1.032,0.366-1.479
			c0.246-0.445,0.566-0.803,0.966-1.073c0.398-0.27,0.846-0.472,1.341-0.612c0.367-0.096,0.92-0.189,1.66-0.279
			c1.508-0.18,2.615-0.393,3.329-0.643c0.006-0.255,0.009-0.417,0.009-0.487c0-0.759-0.176-1.295-0.528-1.607
			c-0.477-0.421-1.186-0.632-2.125-0.632c-0.878,0-1.526,0.154-1.944,0.461c-0.418,0.308-0.728,0.852-0.929,1.633l-1.823-0.25
			c0.167-0.781,0.438-1.409,0.818-1.892c0.38-0.478,0.93-0.849,1.647-1.107c0.72-0.259,1.553-0.389,2.5-0.389
			c0.939,0,1.703,0.11,2.292,0.331c0.585,0.222,1.018,0.499,1.295,0.834c0.276,0.336,0.469,0.759,0.58,1.271
			c0.063,0.318,0.094,0.891,0.094,1.721v2.489c0,1.733,0.038,2.831,0.12,3.292c0.079,0.458,0.234,0.899,0.472,1.321h-1.95
			C329.83,60.079,329.708,59.626,329.649,59.106z M329.497,54.938c-0.679,0.276-1.694,0.511-3.048,0.707
			c-0.769,0.11-1.311,0.232-1.629,0.373c-0.318,0.136-0.563,0.338-0.736,0.606c-0.173,0.266-0.258,0.562-0.258,0.887
			c0,0.496,0.187,0.913,0.563,1.243c0.377,0.333,0.929,0.5,1.653,0.5c0.72,0,1.358-0.158,1.918-0.475
			c0.562-0.313,0.972-0.744,1.234-1.29c0.2-0.421,0.302-1.045,0.302-1.865V54.938z"/>
		<path fill="#FFFFFF" d="M334.235,60.465V45.264h1.865v15.201H334.235z"/>
		<path fill="#FFFFFF" d="M338.952,60.465V45.264h1.865v15.201H338.952z"/>
	</g>
</g>
</svg>
